<svg xmlns="http://www.w3.org/2000/svg" viewBox="0 0 64 64">
  <defs>
    <linearGradient id="bgGrad" x1="0%" y1="0%" x2="100%" y2="100%">
      <stop offset="0%" style="stop-color:#2c2c2e;stop-opacity:1" />
      <stop offset="100%" style="stop-color:#000000;stop-opacity:1" />
    </linearGradient>
    <linearGradient id="sigGrad" x1="0%" y1="0%" x2="100%" y2="100%">
      <stop offset="0%" style="stop-color:#bf5af2;stop-opacity:1" />
      <stop offset="50%" style="stop-color:#0a84ff;stop-opacity:1" />
      <stop offset="100%" style="stop-color:#5ac8fa;stop-opacity:1" />
    </linearGradient>
    <filter id="softGlow" x="-20%" y="-20%" width="140%" height="140%">
      <feGaussianBlur in="SourceGraphic" stdDeviation="1.5" result="blur" />
      <feColorMatrix in="blur" mode="matrix" values="1 0 0 0 0  0 1 0 0 0  0 0 1 0 0  0 0 0 0.4 0" result="glow" />
      <feMerge>
        <feMergeNode in="glow" />
        <feMergeNode in="SourceGraphic" />
      </feMerge>
    </filter>
  </defs>
  <rect width="64" height="64" rx="14" fill="url(#bgGrad)" />
  <path d="M12 28 C 14 22, 18 22, 20 28 C 22 34, 24 34, 26 28 C 28 22, 32 22, 34 28" 
        stroke="url(#sigGrad)" stroke-width="3.5" stroke-linecap="round" fill="none" filter="url(#softGlow)" />
  <path d="M28 28 C 30 22, 34 22, 36 28 C 38 34, 40 34, 42 28 C 44 22, 48 22, 50 28" 
        stroke="url(#sigGrad)" stroke-width="3.5" stroke-linecap="round" fill="none" filter="url(#softGlow)" />
  <path d="M42 24 L 52 36 M 52 24 L 42 36" 
        stroke="url(#sigGrad)" stroke-width="3.5" stroke-linecap="round" fill="none" filter="url(#softGlow)" />
</svg>
