<svg version="1.1" id="Layer_1" xmlns="http://www.w3.org/2000/svg" xmlns:xlink="http://www.w3.org/1999/xlink" x="0px" y="0px"
	 width="100%" viewBox="0 0 688 688" enable-background="new 0 0 688 688" xml:space="preserve">
<path fill="#000000" opacity="1.000000" stroke="none" 
	d="
M254.468658,689.000000 
	C252.076767,683.785461 251.926620,678.284241 251.735733,672.857361 
	C251.468597,665.262939 251.668350,657.652039 251.668350,649.164795 
	C241.342361,652.980530 235.368744,647.714905 229.215347,641.458374 
	C219.850189,631.936218 208.890320,624.393188 196.902374,618.394348 
	C192.146469,616.014404 187.450241,613.502380 182.823212,610.880432 
	C172.792236,605.196350 168.968018,595.787476 168.845383,585.003235 
	C168.731308,574.971863 170.493530,565.172424 177.240860,556.964417 
	C184.251633,548.435913 193.636154,543.693481 203.610474,539.755920 
	C215.385315,535.107483 227.714996,532.482605 239.972717,529.566040 
	C257.433990,525.411499 272.239990,516.668335 282.358490,501.787933 
	C286.797333,495.260132 291.847748,494.981628 298.076538,496.049408 
	C304.879547,497.215637 311.701355,496.731354 318.493622,496.466949 
	C323.051910,496.289490 324.458282,493.088989 322.029572,489.184509 
	C317.211456,481.438782 310.648468,475.396667 302.979919,470.601837 
	C303.582214,467.277588 306.631470,467.850891 308.441040,466.693390 
	C311.392883,464.805267 312.326752,463.246094 308.785889,460.914703 
	C303.935028,457.720703 299.880157,453.696594 295.808411,449.467102 
	C289.820496,443.247253 282.498413,438.646149 272.738678,442.349945 
	C269.471832,443.589722 265.533386,443.094757 261.897461,443.321198 
	C241.544266,444.588684 221.735229,448.961487 202.003387,453.779938 
	C201.207581,453.974243 200.419052,454.340881 199.346954,453.521790 
	C199.824768,451.259552 201.860977,451.004425 203.632782,450.416901 
	C220.236633,444.911438 237.270859,441.499451 254.645111,439.537994 
	C262.558105,438.644653 270.454529,437.786713 278.412659,437.413177 
	C280.308289,437.324158 282.739777,437.810272 284.568909,434.957092 
	C278.859131,434.706055 278.714386,430.968292 278.655823,427.091980 
	C278.460297,414.147552 278.481598,414.017578 265.775970,410.118164 
	C243.236191,403.200592 220.434265,397.579712 196.922424,394.788452 
	C190.645309,394.043274 183.911652,395.140442 177.878952,390.685272 
	C181.773239,390.685272 185.685547,390.441559 189.558624,390.728180 
	C204.951096,391.867310 220.156281,394.367310 235.298904,397.298981 
	C247.205978,399.604279 258.689148,403.464355 270.340607,406.705750 
	C276.431519,408.400269 277.524780,407.947754 279.796997,402.283630 
	C283.104645,394.038452 283.166931,393.938812 275.341278,389.048431 
	C250.020340,373.225128 223.729736,359.326111 195.794708,348.594788 
	C192.405579,347.292877 188.068314,347.127197 185.135559,343.276886 
	C189.282837,341.920746 192.277786,343.804901 195.216354,344.840790 
	C223.852371,354.935608 250.914291,368.336578 276.822479,384.117798 
	C277.249237,384.377747 277.701569,384.606201 278.092987,384.912109 
	C283.575104,389.196716 288.550812,389.987457 295.113800,385.744171 
	C301.014038,381.929382 308.541138,381.385803 315.777924,382.503204 
	C323.154846,383.642242 333.236938,375.248566 333.606659,367.293121 
	C333.936920,360.185852 335.791992,353.582062 338.762878,347.168854 
	C341.558350,341.134369 341.867188,334.289612 344.781494,328.238068 
	C346.532776,324.601501 348.396454,321.123505 351.296875,318.283936 
	C352.626282,316.982422 354.176056,315.528900 356.032135,315.810669 
	C365.302094,317.218109 371.392822,309.360718 379.653107,307.880249 
	C380.704987,307.691711 381.775787,306.724518 381.534271,305.286896 
	C381.276672,303.753540 379.960571,303.132294 378.735565,302.698395 
	C372.773590,300.586578 366.682434,298.966583 360.360687,298.368896 
	C358.754059,298.216980 357.137482,298.170380 355.258636,298.059631 
	C356.682739,293.034576 362.551788,296.408539 364.245544,292.359222 
	C362.846619,290.205566 360.488342,289.928375 358.316284,289.379181 
	C324.368500,280.795227 294.111511,264.984497 267.201569,242.697037 
	C235.185089,216.180206 211.360580,183.611221 195.839737,145.055130 
	C193.070770,138.176590 190.651169,131.102173 191.538055,123.331711 
	C192.190857,117.612038 194.756729,115.672585 200.238159,117.695625 
	C205.365601,119.588005 209.180038,123.477859 213.186478,126.898048 
	C223.169357,135.420197 232.896408,144.246231 242.616150,153.071442 
	C257.967590,167.010056 275.409943,177.388123 294.862823,184.531326 
	C310.468079,190.261688 326.521393,194.736420 341.821991,201.319519 
	C342.361237,201.551544 343.087463,201.348999 343.780212,201.348999 
	C344.970764,199.075134 343.150543,197.908920 342.118958,196.583344 
	C329.280823,180.087082 317.955597,162.625580 310.516327,143.029663 
	C302.916290,123.010452 297.747589,102.328514 294.469299,81.082664 
	C291.820465,63.916424 291.534393,46.761829 291.572632,29.511208 
	C291.584564,24.131128 292.573578,18.931839 293.832947,13.795108 
	C294.466370,11.211510 295.159241,8.144793 298.805450,7.696621 
	C302.658752,7.223001 305.205383,8.867606 306.781708,12.287779 
	C310.610046,20.594015 314.598541,28.830536 318.239319,37.218071 
	C322.753967,47.618843 329.775421,56.311653 337.208038,64.562981 
	C353.008606,82.103996 368.734772,99.736198 385.706360,116.182381 
	C392.515137,122.780396 399.725372,128.986557 406.256989,135.843445 
	C419.076355,149.301239 432.216766,162.523651 441.429138,178.969879 
	C449.736542,193.800583 454.823181,209.695419 457.261719,226.420319 
	C458.527466,235.101639 459.387756,243.867722 459.342377,252.678070 
	C459.260101,268.657562 457.233124,284.425140 454.053589,300.055328 
	C453.711700,301.736084 453.131134,303.272797 454.409393,304.756500 
	C463.772125,315.624298 465.980896,329.115204 468.338043,342.571442 
	C469.856415,351.239441 471.823883,359.810944 474.738068,368.129547 
	C476.800903,374.017883 478.193054,374.417053 483.980530,371.842682 
	C513.320068,358.791718 542.935852,346.467560 574.370117,339.251556 
	C579.246277,338.132202 584.123779,336.319855 589.381042,336.914520 
	C589.355652,338.824188 588.293701,339.371704 587.156799,339.559723 
	C568.531494,342.639526 551.034546,349.392059 533.434143,355.861847 
	C517.968079,361.547119 503.042175,368.466400 488.029053,375.195770 
	C486.511566,375.876007 485.033264,376.658997 483.592743,377.491211 
	C482.240814,378.272278 481.241394,379.372528 481.268158,381.073700 
	C481.298492,383.001709 482.812805,383.680786 484.239166,383.952850 
	C493.474182,385.714539 502.195831,388.722534 510.105316,393.924072 
	C511.599152,394.906464 513.260864,394.263977 514.932983,393.968201 
	C534.176331,390.563965 553.437195,387.243317 573.033630,386.658508 
	C574.790527,386.606018 576.665100,386.155548 579.364868,387.874176 
	C575.337585,388.851624 571.879822,389.077698 568.804810,389.374817 
	C553.004761,390.901611 537.457397,393.908325 521.836121,396.501617 
	C517.669312,397.193329 516.393982,399.398254 518.528320,403.081848 
	C520.142578,405.867859 520.872925,408.938080 521.928711,411.899323 
	C522.549866,413.641418 522.624878,415.291962 520.510681,416.589478 
	C515.600952,419.602722 520.273376,423.045441 520.434998,426.273590 
	C520.588135,429.331543 523.114563,429.644958 525.612549,429.642426 
	C536.778625,429.631195 547.954773,429.348541 559.108154,429.726593 
	C571.529541,430.147644 583.927551,431.233429 596.330261,432.076324 
	C604.071716,432.602417 611.526672,434.319733 619.208923,435.338531 
	C616.590454,437.221436 613.604858,437.163513 610.785645,436.847534 
	C582.811157,433.712341 554.743896,433.052704 526.628540,433.357849 
	C523.344177,433.393494 520.990540,433.860352 521.300781,437.925232 
	C521.393799,439.143768 521.598267,440.623505 519.570129,440.915253 
	C517.135986,441.265442 516.782959,443.280396 516.274353,445.308838 
	C515.550171,448.197327 514.562073,451.033600 513.480957,453.812073 
	C513.016663,455.005402 512.112122,456.870575 511.277435,456.943604 
	C504.360718,457.548981 501.793457,464.273865 496.417145,467.144867 
	C485.798187,472.815552 474.050262,475.676483 463.404175,481.195923 
	C461.317932,482.277496 458.630066,482.813263 458.571838,485.549805 
	C458.521851,487.899963 461.115723,488.338470 462.815094,489.265381 
	C471.507690,494.006805 474.557892,492.648529 465.324493,502.122284 
	C463.010803,504.496216 461.046783,507.207001 458.847626,509.697205 
	C454.258728,514.893372 452.830780,520.020996 455.082062,527.362793 
	C460.295593,544.365356 461.108276,545.050354 478.096039,541.414856 
	C507.104309,535.206970 536.233215,529.563416 565.305176,523.651917 
	C575.698669,521.538513 586.078491,519.356995 596.453979,517.156555 
	C598.765869,516.666260 601.129456,516.119629 603.246155,517.382935 
	C605.628784,518.804993 606.098999,521.458008 606.157776,523.926514 
	C606.229797,526.953979 603.449890,526.894958 601.472046,527.339294 
	C570.238708,534.356323 538.992920,541.317932 507.750061,548.292603 
	C500.145569,549.990173 492.550446,551.731689 484.930847,553.358704 
	C482.952209,553.781189 481.046661,554.150024 479.713165,555.907593 
	C479.898773,558.360413 481.828003,559.632996 483.264465,561.156189 
	C486.341675,564.419067 489.691193,567.424072 492.250244,571.159485 
	C494.843140,574.944153 495.497162,578.717712 492.537109,582.633545 
	C484.560364,593.185913 474.304871,601.553528 465.268829,611.090454 
	C459.326172,617.362488 452.653259,622.959961 447.380432,629.845032 
	C439.440613,640.212463 440.472168,651.927979 442.895111,663.694702 
	C443.683167,667.521729 444.583069,671.413086 447.035309,675.316895 
	C453.567688,666.315369 461.500671,659.390381 470.500336,653.661926 
	C481.310608,646.781189 493.014679,641.633240 505.775970,640.989807 
	C516.106995,640.468933 521.131042,642.525696 520.397583,653.800415 
	C519.626892,665.646484 520.073181,677.422180 525.861938,688.666382 
	C523.958313,689.000000 521.916687,689.000000 519.374878,688.623596 
	C517.981934,684.368652 516.139160,680.811829 515.461243,676.816467 
	C514.054016,668.523193 515.040344,660.218628 514.801392,651.925964 
	C514.655273,646.851990 512.666321,644.990479 507.677002,645.566406 
	C498.841980,646.586304 491.623871,651.119934 484.415710,655.952759 
	C475.436737,661.972717 468.378876,670.429138 458.786896,675.636597 
	C451.266937,679.719177 450.756104,682.507935 456.000000,689.000000 
	C400.645782,689.000000 345.291534,689.000000 289.353363,688.682495 
	C286.002380,684.749939 283.290924,681.077576 278.951233,678.450928 
	C278.180664,683.170715 280.447113,686.141418 283.000000,689.000000 
	C273.645782,689.000000 264.291534,689.000000 254.468658,689.000000 
M413.097809,481.021332 
	C416.503937,476.698425 413.333252,471.238953 415.418915,466.717010 
	C417.582855,466.049133 419.095673,467.355133 420.667603,468.138611 
	C428.568420,472.076782 436.460602,476.036560 444.269104,480.153229 
	C447.029327,481.608429 449.349762,481.821655 452.163635,480.106659 
	C460.864868,474.803406 470.158356,470.649689 479.724670,467.201782 
	C492.621185,462.553619 503.390594,455.826721 506.731995,441.564850 
	C508.803162,441.222717 509.851929,443.532806 511.693146,442.680817 
	C514.173645,435.606323 513.058167,433.775116 506.013336,433.406891 
	C504.351532,433.320038 502.674988,433.286407 501.016571,433.397461 
	C485.108337,434.462830 469.168732,435.213989 453.304779,436.745880 
	C434.139587,438.596497 415.040192,441.126495 395.908752,443.331818 
	C394.327759,443.514008 392.662781,443.746460 392.519958,445.592621 
	C392.000061,452.313019 390.482422,459.023102 391.832733,466.141205 
	C401.863434,464.539764 407.243988,457.720886 411.845490,448.544800 
	C412.209686,458.132538 405.507690,467.105011 396.604187,470.567078 
	C394.687714,471.312256 392.077301,471.473419 392.287964,474.529083 
	C392.487305,477.420441 392.092926,480.251923 390.968140,483.643097 
	C398.372223,480.520264 405.125549,478.078613 413.097809,481.021332 
M403.595917,242.940887 
	C413.656738,255.243393 422.256653,268.553802 429.905487,282.750946 
	C432.396729,280.466827 431.744202,278.317719 431.607574,276.454163 
	C430.823486,265.758667 428.050629,255.513428 424.128479,245.571030 
	C412.758636,216.749451 395.193115,191.746109 376.149200,167.635574 
	C361.794708,149.462112 344.978119,133.434204 330.674255,115.221321 
	C329.997040,114.359047 329.284332,113.288109 327.868378,113.534767 
	C326.880768,118.712517 327.260345,121.303505 329.961395,131.478363 
	C336.661407,156.717285 349.780121,178.553055 365.505737,199.043015 
	C377.179810,214.254028 391.252533,227.373337 403.595917,242.940887 
M336.787140,389.383575 
	C337.770660,391.052856 338.461914,393.055634 341.226990,393.121826 
	C342.300049,389.961121 342.609406,386.697327 342.634064,383.416565 
	C342.660919,379.837250 343.694580,376.515015 344.979279,373.257446 
	C345.925690,370.857635 348.088501,369.531006 350.118530,371.087585 
	C353.461060,373.650482 357.515991,376.022736 356.574005,381.574127 
	C356.168427,383.964233 356.746582,386.531525 356.950867,389.012329 
	C357.243378,392.564514 358.638580,393.843201 362.538422,392.746704 
	C373.350403,389.706635 376.610016,391.150055 382.220612,400.457367 
	C382.650360,401.170288 383.015900,401.931122 383.514343,402.591949 
	C386.782104,406.924286 393.113007,408.369049 397.790222,405.625641 
	C399.536163,404.601593 400.855896,404.414978 402.847046,405.108398 
	C407.199280,406.624054 411.399750,403.003998 410.529053,398.559998 
	C408.306335,387.214752 411.059296,376.757874 415.971069,366.685364 
	C416.900909,364.778595 418.221558,362.933289 419.757996,361.477722 
	C423.188538,358.227783 426.696106,359.141602 428.249542,363.566071 
	C429.894867,368.252380 429.288422,373.108276 429.090759,377.926788 
	C428.984283,380.521729 426.308075,384.004486 429.888184,385.448181 
	C433.537384,386.919769 435.254547,383.153961 437.159424,380.702423 
	C437.465851,380.308075 437.752899,379.898712 438.051208,379.498016 
	C442.496765,373.526367 441.915131,371.998169 434.866394,371.160797 
	C433.943909,369.590179 434.411530,367.943787 434.565582,366.294495 
	C435.742859,353.690826 436.891663,341.073578 433.390778,328.627808 
	C431.467072,321.788910 429.810669,321.170685 424.215149,325.585724 
	C413.083984,334.368622 405.545074,345.799927 400.340668,358.877625 
	C399.442993,361.133270 399.070770,363.702850 397.028168,365.249481 
	C395.303192,365.209106 394.583496,363.963165 393.642395,363.075500 
	C387.243896,357.041016 385.547180,356.798981 378.022156,361.266968 
	C375.447601,362.795624 372.834900,363.218353 369.888763,362.750153 
	C366.942688,362.281982 363.941925,362.019897 360.958618,361.951813 
	C353.991089,361.792694 353.527740,361.137238 352.637024,354.359833 
	C352.008636,349.578461 352.445343,344.464417 349.887543,339.883850 
	C346.627319,342.182648 346.744049,342.251984 344.750885,345.607941 
	C336.806488,358.984222 338.921143,374.260864 336.787140,389.383575 
M291.632629,218.030045 
	C284.112213,215.902435 276.670319,213.602753 269.405518,210.637650 
	C262.153503,207.677765 255.992126,202.447357 248.270462,199.978973 
	C247.558441,202.965652 249.203918,204.439560 250.261414,205.965775 
	C258.950623,218.506271 269.524567,229.249619 281.387451,238.829971 
	C303.936920,257.040710 330.556244,266.216431 357.889252,273.997772 
	C363.965454,275.727600 370.025269,275.689362 376.166565,275.636749 
	C378.003052,275.621002 380.069458,275.622040 381.027771,273.765961 
	C382.065338,271.756317 380.273010,270.358643 379.262421,268.931702 
	C374.019623,261.528778 367.528381,255.324600 360.318604,249.896225 
	C339.931793,234.546677 316.752472,225.139359 291.632629,218.030045 
M399.924500,531.419373 
	C407.765442,520.408813 412.037476,508.228424 411.736206,494.628540 
	C411.564362,486.870331 407.835876,484.123627 400.443542,486.167419 
	C389.960358,489.065704 381.287628,495.210114 372.899902,501.809875 
	C371.833893,502.648651 370.395050,503.634308 371.501221,505.445984 
	C382.567078,502.506378 385.555878,503.734924 385.316315,511.060883 
	C378.541626,506.920837 369.313599,509.963989 367.767883,517.532288 
	C366.134766,525.528503 367.315308,533.489319 372.300110,540.350586 
	C375.744415,545.091492 380.099762,546.090149 385.489319,543.710999 
	C391.277435,541.155945 395.632538,536.861450 399.924500,531.419373 
M419.195221,427.859039 
	C438.273621,431.951569 456.850433,432.954590 473.017181,418.489594 
	C471.585632,424.083221 466.533203,426.129669 463.797180,430.043335 
	C464.790039,431.326752 465.903320,431.618866 467.087952,431.522766 
	C480.535919,430.432312 494.005859,429.914398 507.491638,429.502777 
	C513.868713,429.308105 515.771729,425.361908 513.013428,419.460236 
	C511.316833,415.830078 509.332123,412.334564 507.427551,408.684326 
	C510.094421,407.910065 512.024963,410.329590 514.142090,408.827240 
	C511.335693,401.535828 507.170715,399.284180 499.827301,401.010254 
	C478.746674,405.965210 457.910980,411.801758 437.332092,418.537323 
	C430.278961,420.845825 423.087799,422.835602 416.378387,426.027496 
	C416.870361,427.474792 417.761261,427.488556 419.195221,427.859039 
M370.940155,438.986847 
	C371.719666,436.188263 370.817200,433.029449 374.517242,431.080383 
	C382.011566,427.132721 389.153931,422.515808 396.432953,418.160675 
	C401.340790,415.224213 406.234039,412.263397 411.343414,409.187286 
	C409.538544,407.945374 408.709076,409.160309 407.827515,409.714355 
	C400.060883,414.595673 391.901794,418.715118 383.511322,422.394806 
	C380.100098,423.890839 376.986786,424.771729 373.148193,422.628113 
	C370.725952,421.275452 366.584900,419.383972 364.405731,422.387451 
	C362.035858,425.653778 359.481415,429.081543 358.290894,433.145813 
	C357.003632,437.540375 356.141754,437.770416 352.823059,434.785553 
	C347.248352,429.771637 344.663177,423.487305 343.507019,416.087067 
	C339.920898,393.132965 320.596527,381.822205 299.374634,389.900177 
	C297.382263,390.658569 294.795227,391.225433 294.552094,393.680176 
	C294.315063,396.072998 296.598877,397.394531 298.403870,398.500122 
	C306.928833,403.721771 314.772797,409.896240 322.853516,415.739746 
	C324.470917,416.909363 326.121552,418.676880 328.083618,418.415771 
	C332.974548,417.764862 335.052765,420.730835 337.895325,423.963776 
	C342.824188,429.569427 344.568390,435.500793 342.808472,442.566071 
	C342.403259,444.192810 342.939850,445.076721 344.175323,445.881744 
	C348.155579,448.475220 352.924255,446.467255 353.672028,441.588959 
	C359.720184,445.679474 365.774567,449.611725 374.263916,448.119415 
	C371.683990,445.254456 371.350677,442.450226 370.940155,438.986847 
M344.228973,547.623230 
	C349.293549,543.796814 354.853851,540.764648 360.276093,537.503906 
	C362.083374,536.417053 364.386658,534.783630 361.379944,532.640503 
	C359.201630,531.087891 349.441467,532.628235 347.438904,534.536499 
	C344.036804,537.778503 340.353638,540.585083 335.979797,542.414734 
	C329.322357,545.199768 323.304321,543.081726 320.007019,536.658630 
	C318.002197,532.753357 317.311615,528.478699 316.731262,524.175781 
	C316.214478,520.344238 314.575348,519.632019 311.505157,522.049683 
	C309.959381,523.267029 308.665710,524.857849 307.443481,526.424377 
	C296.093781,540.970825 290.242310,557.803589 287.022675,575.726868 
	C286.619324,577.972290 285.245148,580.763428 288.104095,581.889771 
	C290.890106,582.987366 291.976379,580.107239 293.213257,578.186646 
	C293.753906,577.347107 294.203766,576.448608 294.753021,575.615173 
	C298.349884,570.157532 301.939056,564.174988 308.416992,562.273743 
	C313.814209,560.689758 317.073120,557.583679 320.333099,553.440491 
	C325.949005,546.303101 330.165894,545.380920 338.598785,548.671387 
	C340.596008,549.450684 342.098602,549.269043 344.228973,547.623230 
M379.528259,432.785583 
	C378.557434,433.550323 377.009949,433.583008 376.342804,435.724701 
	C416.437439,419.341095 457.363739,407.056763 498.977203,396.594238 
	C493.428619,391.842560 487.004028,390.698853 480.678314,389.726654 
	C472.001160,388.393066 463.122955,386.549713 454.699371,390.830444 
	C429.301208,403.737488 404.261749,417.296448 379.528259,432.785583 
M418.958130,485.310272 
	C416.138733,495.099243 418.159851,505.549500 414.719757,515.317627 
	C413.650513,518.353821 416.516052,518.785706 418.835175,518.375183 
	C423.583862,517.534485 428.342102,516.324951 433.152496,516.603271 
	C443.240997,517.187073 450.596985,513.422058 455.018860,504.188934 
	C455.508881,503.165649 456.438995,502.351868 457.171661,501.446289 
	C460.894867,496.844208 460.512756,495.126404 455.101776,492.482208 
	C445.533661,487.806519 435.959412,483.143280 426.372192,478.506927 
	C424.774261,477.734131 423.218658,476.539429 421.155457,477.428436 
	C419.829010,479.577209 419.355286,482.001556 418.958130,485.310272 
M352.728668,568.141663 
	C348.774536,566.228088 345.502808,563.465820 342.598022,560.194641 
	C340.282227,557.586731 337.947357,554.960266 334.724915,553.388855 
	C330.632019,551.392944 320.464447,557.736572 320.737396,562.152344 
	C320.773773,562.740845 321.199707,563.399963 321.627441,563.855286 
	C327.463501,570.068909 330.100067,579.036926 339.415863,582.369995 
	C344.759918,584.282043 349.347321,588.395447 354.935883,590.175720 
	C362.956451,592.730713 370.358704,590.479431 374.456085,584.446899 
	C378.564331,578.398376 377.013153,574.031067 369.929260,572.206848 
	C364.476135,570.802612 358.953979,569.666321 352.728668,568.141663 
M338.575348,479.469086 
	C326.754425,492.195862 321.655334,507.289368 323.035339,524.521606 
	C323.408813,529.184814 324.251709,534.440308 329.302856,536.151062 
	C334.442902,537.891968 338.398163,534.060059 342.193512,531.098389 
	C345.179779,528.768005 347.052673,526.283936 345.911560,521.790222 
	C344.915680,517.868713 345.545105,513.559814 346.636444,509.446930 
	C348.042938,504.146332 345.845123,502.252502 340.380341,503.464081 
	C337.203339,504.168427 335.415680,507.130219 332.298859,508.345825 
	C333.899475,501.267944 338.750732,497.963837 346.893585,498.972198 
	C350.381592,499.404144 351.193573,497.387634 352.458252,495.277863 
	C353.737396,493.144073 353.744873,491.229706 351.661438,489.545990 
	C347.528046,486.205750 344.016418,482.093414 338.575348,479.469086 
M331.740143,591.781982 
	C329.376099,588.751099 327.540710,585.414307 325.956787,581.921936 
	C324.237213,578.130554 322.326080,574.422424 319.519562,571.312866 
	C315.100555,566.416687 311.108612,566.169678 306.110199,570.425354 
	C304.005798,572.217102 301.988098,574.138977 300.696960,577.258118 
	C307.605896,577.582458 310.436340,582.047180 312.538025,587.399353 
	C313.994141,591.107666 315.660614,594.732971 317.208496,598.405701 
	C318.846252,602.291626 320.739502,605.782349 325.109772,607.456543 
	C327.825195,608.496704 329.969299,610.941772 330.071930,613.882874 
	C330.255280,619.136230 333.633606,619.630371 337.497955,619.664551 
	C343.044647,619.713623 346.865906,616.752625 349.633423,612.242126 
	C354.017059,605.097656 352.610565,600.948792 344.792114,598.110352 
	C340.436310,596.529114 335.853607,595.486572 331.740143,591.781982 
M347.620056,454.111847 
	C351.639954,462.902802 356.456940,471.253662 361.580170,479.437073 
	C363.775848,482.944214 366.733948,484.934296 371.052948,484.747040 
	C373.705170,484.632019 376.375885,484.986053 379.032043,484.910339 
	C383.813232,484.774078 387.697662,481.191193 387.621735,476.424988 
	C387.463226,466.473389 386.936554,456.527588 386.522400,446.581024 
	C386.515808,446.422272 386.015930,446.284027 385.379547,445.935242 
	C381.066711,452.606018 374.626709,454.158661 367.177826,452.746735 
	C359.533356,451.297760 358.504059,452.407959 361.135773,459.989197 
	C362.397186,463.622986 364.136139,467.091003 365.658813,470.634125 
	C360.174622,466.186096 357.676483,460.157623 355.523346,453.915344 
	C354.994934,452.383362 354.534637,450.453430 352.418243,450.510712 
	C350.340698,450.566956 347.915863,450.432434 347.620056,454.111847 
M345.331635,461.093842 
	C342.276306,455.551636 339.214722,450.012878 336.169403,444.465149 
	C335.244202,442.779572 334.150482,441.524536 331.956848,441.501770 
	C322.966766,441.408539 313.978149,441.178864 304.988068,441.089142 
	C303.233154,441.071594 301.248138,440.849274 299.825592,443.386047 
	C303.013916,448.347137 307.635742,452.019928 312.897858,454.879974 
	C323.152466,460.453583 333.441010,465.950500 342.333923,473.646027 
	C349.387573,479.749908 356.340759,485.972839 363.487030,491.965912 
	C370.519623,497.863678 372.422791,497.530701 379.048615,489.654297 
	C376.054321,489.347687 373.303558,488.792603 370.563049,488.839294 
	C363.755432,488.955261 359.457520,485.588440 356.325745,479.823883 
	C352.988983,473.681946 349.245911,467.760803 345.331635,461.093842 
M457.495087,554.774658 
	C490.483795,548.653137 592.968750,524.885864 597.499817,521.691284 
	C524.272278,536.590942 451.044800,551.490601 377.308838,566.493713 
	C379.604187,570.805481 381.843842,571.762878 385.617126,570.892944 
	C409.270172,565.440186 432.979797,560.232605 457.495087,554.774658 
M273.055603,579.413147 
	C271.058533,577.112488 270.120972,573.823792 266.321014,573.304504 
	C247.816772,570.775635 229.479462,582.411377 224.007370,600.225403 
	C223.548187,601.720154 223.020111,603.155151 224.167892,604.452759 
	C227.542374,608.267761 230.677826,612.329956 234.933945,615.822266 
	C236.675919,613.937683 237.907898,612.331055 238.179596,610.081299 
	C230.469345,608.824585 227.312302,606.051514 227.047318,600.217407 
	C226.885773,596.660400 228.497543,594.126221 231.987946,593.031982 
	C233.656967,592.508728 235.245544,592.970398 236.823929,593.649475 
	C240.772934,595.348389 241.589905,599.195496 242.925385,603.260864 
	C250.222672,593.830139 259.034882,587.633057 270.009155,584.608826 
	C272.137207,584.022339 274.178864,582.985168 273.055603,579.413147 
M309.234528,623.374023 
	C312.005798,623.903687 314.736633,624.533691 317.605560,623.727417 
	C321.077179,622.751892 323.696869,620.859131 324.507568,617.270447 
	C325.331390,613.623657 323.095001,611.254761 320.329071,609.456665 
	C318.392242,608.197632 316.236389,607.275452 314.182861,606.204285 
	C314.745361,600.388367 310.991394,596.043030 308.781708,591.269104 
	C305.142731,583.407349 301.315918,582.427551 293.568024,586.400452 
	C289.085449,588.698975 288.130707,594.061462 292.571747,595.870422 
	C296.942810,597.650879 295.725128,600.528503 296.309753,603.202454 
	C298.074707,611.274902 299.879547,619.275085 309.234528,623.374023 
M323.907684,431.652039 
	C314.384796,427.745026 304.877106,423.800232 295.329407,419.954803 
	C292.597229,418.854401 289.731750,418.296173 287.827087,421.426788 
	C286.433716,423.717041 287.773468,432.547882 289.824280,433.139435 
	C294.601654,434.517487 298.537872,438.418213 304.288544,437.148926 
	C307.919769,436.347443 311.872223,437.175964 315.681335,437.365479 
	C320.741516,437.617279 326.047485,438.571930 331.396912,436.348541 
	C329.265167,433.705994 326.756836,433.110229 323.907684,431.652039 
M363.487762,512.321106 
	C363.864777,510.542511 364.134155,508.732819 364.637573,506.990723 
	C366.778687,499.581268 366.078796,498.367035 357.808167,495.971954 
	C353.376801,502.310760 351.020203,509.536621 350.531372,517.202759 
	C350.274139,521.236511 351.978271,525.089661 356.071533,527.063416 
	C360.025909,528.970154 362.455444,527.464600 362.651215,523.091553 
	C362.799347,519.783203 362.410187,516.441650 363.487762,512.321106 
M306.284210,410.327057 
	C302.372040,404.847839 296.339966,402.245453 290.792419,399.017242 
	C288.881561,397.905273 287.310120,398.485413 286.714508,400.680389 
	C287.211548,402.406860 289.501404,400.897980 289.884216,402.985413 
	C289.670990,403.496918 289.394928,404.265839 289.039154,404.995850 
	C286.314667,410.585846 287.066345,412.505859 292.931305,414.624268 
	C296.511353,415.917419 300.097626,417.204407 303.730865,418.334290 
	C305.543671,418.898071 307.528259,419.726898 309.460083,417.679932 
	C308.516357,415.476135 307.554749,413.230530 306.284210,410.327057 
M392.141602,659.640930 
	C385.014069,667.566284 377.458466,675.054443 369.450317,682.094482 
	C367.928101,683.432617 365.858307,684.771484 367.057526,687.453003 
	C369.048523,688.066895 370.280823,686.683228 371.588715,685.798279 
	C383.187897,677.950134 391.750977,667.047852 400.758728,656.602661 
	C402.072052,655.079773 402.299377,653.362671 400.003387,651.059082 
	C397.517395,653.789124 395.078827,656.467041 392.141602,659.640930 
M244.819122,571.163635 
	C247.069809,570.277344 249.714325,570.381226 251.650421,568.560303 
	C247.601044,564.964294 244.195877,564.313354 234.782166,565.274231 
	C226.204544,566.149780 225.544785,567.408813 230.107468,574.338501 
	C230.795151,575.382935 230.991577,576.906128 232.740540,577.225952 
	C236.327820,575.064026 239.889206,572.596436 244.819122,571.163635 
M405.114349,437.878143 
	C411.942566,437.324188 418.665985,436.210938 426.047455,434.346222 
	C408.085022,429.383789 397.099884,428.220612 394.019531,439.510803 
	C397.595612,439.003082 400.963379,438.524963 405.114349,437.878143 
M326.330780,482.998230 
	C330.550781,484.387238 331.033203,480.402161 332.812408,478.388458 
	C333.914154,477.141602 333.945709,475.553375 332.500519,474.438446 
	C327.158997,470.317627 323.291443,466.883148 314.636688,472.121277 
	C318.414215,475.703827 322.079102,479.179504 326.330780,482.998230 
M359.638214,417.406647 
	C360.501038,418.038361 362.186310,418.357880 362.082855,417.420135 
	C361.632355,413.336304 363.999908,410.140045 364.885437,406.508453 
	C365.294952,404.828949 364.827789,403.141541 363.084625,402.238098 
	C361.164124,401.242828 359.975983,402.533295 358.796021,403.751617 
	C354.883240,407.791779 354.956451,410.178955 359.638214,417.406647 
M318.232697,421.997284 
	C320.101318,427.294464 325.152924,426.386993 329.008667,427.829285 
	C326.836700,423.516510 323.432281,421.394196 318.232697,421.997284 
M414.150787,297.241455 
	C415.755646,297.762329 417.218781,297.348450 416.196198,295.568420 
	C415.060303,293.591125 413.229675,291.711273 409.962311,292.853546 
	C410.721558,294.879974 412.402405,295.693329 414.150787,297.241455 
M381.717041,441.503326 
	C382.697021,441.014679 384.037933,440.733063 383.018890,438.933228 
	C380.872925,438.993103 378.841858,439.242004 376.959229,441.828735 
	C378.852234,441.730469 379.965546,441.672699 381.717041,441.503326 
z"/>
</svg>